<?xml version="1.0" encoding="utf-8"?>
<!-- Generator: Adobe Illustrator 25.0.0, SVG Export Plug-In . SVG Version: 6.00 Build 0)  -->
<svg version="1.1" id="Capa_1" xmlns="http://www.w3.org/2000/svg" xmlns:xlink="http://www.w3.org/1999/xlink" x="0px" y="0px"
	 viewBox="0 0 578.1 276.6" style="enable-background:new 0 0 578.1 276.6;" xml:space="preserve">
<g>
	<path d="M335.8,34.2c-3.6,0-6.6,1.3-9,3.8c-2.5,2.5-3.7,5.6-3.7,9.1c0,3.4,1.2,6.4,3.7,8.8c2.5,2.5,5.5,3.7,9,3.7
		c3.6,0,6.6-1.2,9-3.7c2.5-2.5,3.7-5.4,3.7-8.8c0-3.6-1.2-6.6-3.7-9.1C342.4,35.5,339.4,34.2,335.8,34.2z"/>
	<rect x="326.6" y="91.2" width="18.5" height="151.2"/>
	<path d="M453.9,103.1c-4.7-4.7-10.2-8.3-16.4-10.9c-6.2-2.6-12.9-3.9-20-3.9c-7,0-13.6,1.3-19.9,3.9c-6.3,2.6-11.8,6.2-16.5,10.9
		c-4.7,4.7-8.4,10.1-11,16.3c-2.6,6.2-3.9,12.9-3.9,20c0,7.1,1.3,13.8,3.9,20c2.6,6.2,6.3,11.7,11,16.3c4.7,4.7,10.2,8.3,16.5,10.9
		c6.3,2.6,12.9,3.9,19.9,3.9c7.1,0,13.8-1.3,20-3.9c6.2-2.6,11.7-6.2,16.4-10.9c4.7-4.7,8.4-10.1,11-16.3c2.6-6.2,3.9-12.9,3.9-20
		c0-7.1-1.3-13.8-3.9-20C462.3,113.2,458.6,107.7,453.9,103.1z M447.7,152.2c-1.7,4.1-4.1,7.7-7.1,10.8c-3,3.1-6.5,5.5-10.5,7.3
		c-4,1.8-8.2,2.7-12.7,2.7c-4.5,0-8.8-0.9-12.7-2.7c-4-1.8-7.5-4.2-10.5-7.3c-3-3.1-5.4-6.7-7.1-10.8c-1.7-4.1-2.6-8.4-2.6-12.7
		c0-4.5,0.9-8.8,2.6-12.8c1.7-4,4.1-7.6,7.1-10.8c3-3.2,6.5-5.6,10.6-7.3c4-1.7,8.3-2.6,12.6-2.6c4.5,0,8.8,0.9,12.7,2.6
		c4,1.7,7.5,4.1,10.6,7.3c3.1,3.2,5.4,6.7,7.1,10.8c1.6,4,2.5,8.3,2.5,12.8C450.3,143.8,449.4,148.1,447.7,152.2z"/>
	<polygon points="554.5,91.2 524.3,152.2 491.8,91.2 470.2,91.2 514.2,170.9 476.4,242.4 497.4,242.4 575.2,91.2 	"/>
	<path d="M139.8,1.4C64.2,1.4,2.9,62.7,2.9,138.3c0,75.6,61.3,136.9,136.9,136.9s136.9-61.3,136.9-136.9
		C276.8,62.7,215.5,1.4,139.8,1.4z M136.8,141.2H63.5c0.1,8.6,2.9,16.1,8.2,22.4c5.3,6.3,12.3,9.5,20.8,9.5c6.7,0,12.2-1.5,16.5-4.6
		c4.3-3.1,8.4-7.8,12.2-14.1l15.6,8.8c-4.5,8.2-10.7,14.7-18.6,19.3c-7.9,4.7-16.5,7-26,7c-7.3,0-13.8-1.3-19.6-3.8
		c-5.8-2.5-10.8-6.1-14.9-10.7c-4.1-4.6-7.3-10-9.5-16.1c-2.2-6.2-3.3-12.8-3.3-19.9c0-15.3,4-27.8,12.1-37.4
		c8.1-9.6,19.7-14.4,34.7-14.4c14.7,0,25.8,4.8,33.5,14.3c7.7,9.5,11.5,21.8,11.5,36.9V141.2z M234.7,186.2h-18.5v-55.1
		c0-9.5-1.3-16.4-4-20.9c-2.7-4.5-8.4-6.7-17.2-6.7c-5.6,0-10.1,1.1-13.5,3.3c-3.4,2.2-5.8,5.1-7.2,8.7c-1.4,3.6-2.3,7.4-2.7,11.4
		c-0.3,4-0.5,9-0.5,15v44.2h-18.5V90h18.5V103h0.4c2.7-5.1,6.7-9,12-11.7c5.3-2.7,10.9-4.1,17-4.1c6.6,0,12.1,1,16.5,3.1
		c4.4,2.1,8,5,10.6,8.7c2.6,3.8,4.4,8.2,5.4,13.1c1,5,1.5,10.6,1.5,16.7V186.2z"/>
	<path d="M91.8,103.2c-7.1,0-13.2,2.3-18.2,6.8c-5,4.5-8.1,10.3-9.1,17.3h53.8c-1.1-7.4-4-13.3-8.6-17.6
		C105.1,105.3,99.1,103.2,91.8,103.2z"/>
</g>
</svg>
